<svg xmlns="http://www.w3.org/2000/svg" viewBox="0 0 800 460" fill="none">
  <defs>
    <style>
      text { font-family: -apple-system, 'Helvetica Neue', Arial, sans-serif; }
    </style>
  </defs>

  <rect width="800" height="460" rx="14" fill="#0D0D0D"/>

  <!-- DEVELOPER LAYER -->
  <rect x="30" y="20" width="740" height="110" rx="10" fill="#0f0f0f" stroke="#1e1e1e" stroke-width="1"/>
  <text x="56" y="44" font-size="10" fill="#F4B526" font-weight="700" letter-spacing="2" opacity="0.8">DEVELOPER LAYER</text>

  <rect x="50" y="60" width="160" height="52" rx="8" fill="#161616" stroke="#F4B526" stroke-width="1"/>
  <text x="130" y="83" text-anchor="middle" font-size="13" fill="#fff" font-weight="600">b402-sdk</text>
  <text x="130" y="100" text-anchor="middle" font-size="9" fill="#777">TypeScript SDK</text>

  <rect x="230" y="60" width="160" height="52" rx="8" fill="#161616" stroke="#F4B526" stroke-width="1"/>
  <text x="310" y="83" text-anchor="middle" font-size="13" fill="#fff" font-weight="600">ClawPay</text>
  <text x="310" y="100" text-anchor="middle" font-size="9" fill="#777">Agent Payments</text>

  <rect x="410" y="60" width="160" height="52" rx="8" fill="#161616" stroke="#2a2a2a" stroke-width="1"/>
  <text x="490" y="83" text-anchor="middle" font-size="13" fill="#aaa" font-weight="500">b402 Docs</text>
  <text x="490" y="100" text-anchor="middle" font-size="9" fill="#555">docs.b402.ai</text>

  <rect x="590" y="60" width="160" height="52" rx="8" fill="#161616" stroke="#2a2a2a" stroke-width="1"/>
  <text x="670" y="83" text-anchor="middle" font-size="13" fill="#aaa" font-weight="500">EIP-712</text>
  <text x="670" y="100" text-anchor="middle" font-size="9" fill="#555">Signature Guide</text>

  <!-- Connectors Dev to Service -->
  <line x1="130" y1="112" x2="180" y2="155" stroke="#F4B526" stroke-width="1" opacity="0.3"/>
  <line x1="310" y1="112" x2="280" y2="155" stroke="#F4B526" stroke-width="1" opacity="0.3"/>
  <line x1="490" y1="112" x2="500" y2="155" stroke="#F4B526" stroke-width="1" opacity="0.15"/>

  <!-- SERVICE LAYER -->
  <rect x="30" y="150" width="740" height="120" rx="10" fill="#0f0f0f" stroke="#1e1e1e" stroke-width="1"/>
  <text x="56" y="174" font-size="10" fill="#F4B526" font-weight="700" letter-spacing="2" opacity="0.8">SERVICE LAYER</text>

  <rect x="50" y="192" width="260" height="60" rx="8" fill="#161616" stroke="#F4B526" stroke-width="1.2"/>
  <text x="180" y="216" text-anchor="middle" font-size="14" fill="#fff" font-weight="700">b402 Facilitator</text>
  <text x="180" y="234" text-anchor="middle" font-size="9" fill="#777">Verify · Settle · Deploy Wallets · Swap</text>

  <rect x="330" y="192" width="200" height="60" rx="8" fill="#161616" stroke="#F4B526" stroke-width="1"/>
  <text x="430" y="216" text-anchor="middle" font-size="14" fill="#fff" font-weight="600">Privacy Pool</text>
  <text x="430" y="234" text-anchor="middle" font-size="9" fill="#777">Shield · Unshield · ZK Proofs</text>

  <rect x="550" y="192" width="200" height="60" rx="8" fill="#161616" stroke="#2a2a2a" stroke-width="1"/>
  <text x="650" y="216" text-anchor="middle" font-size="14" fill="#aaa" font-weight="500">b402scan</text>
  <text x="650" y="234" text-anchor="middle" font-size="9" fill="#555">Explorer &amp; Analytics</text>

  <!-- Connectors Service to Protocol -->
  <line x1="180" y1="252" x2="180" y2="296" stroke="#F4B526" stroke-width="1.2" opacity="0.35"/>
  <polygon points="176,294 180,302 184,294" fill="#F4B526" opacity="0.35"/>
  <line x1="430" y1="252" x2="430" y2="296" stroke="#F4B526" stroke-width="1" opacity="0.25"/>
  <polygon points="426,294 430,302 434,294" fill="#F4B526" opacity="0.25"/>
  <line x1="650" y1="252" x2="650" y2="296" stroke="#F4B526" stroke-width="1" opacity="0.12"/>
  <polygon points="646,294 650,302 654,294" fill="#F4B526" opacity="0.12"/>

  <!-- PROTOCOL LAYER -->
  <rect x="30" y="290" width="740" height="120" rx="10" fill="#0f0f0f" stroke="#1e1e1e" stroke-width="1"/>
  <text x="56" y="314" font-size="10" fill="#F4B526" font-weight="700" letter-spacing="2" opacity="0.8">PROTOCOL LAYER</text>

  <rect x="50" y="332" width="230" height="60" rx="8" fill="#161616" stroke="#F4B526" stroke-width="1.2"/>
  <text x="165" y="356" text-anchor="middle" font-size="14" fill="#fff" font-weight="700">B402 Relayer</text>
  <text x="165" y="374" text-anchor="middle" font-size="9" fill="#777">EIP-712 · transferWithAuthorization</text>

  <rect x="300" y="332" width="220" height="60" rx="8" fill="#161616" stroke="#F4B526" stroke-width="1"/>
  <text x="410" y="356" text-anchor="middle" font-size="14" fill="#fff" font-weight="600">Smart Wallets</text>
  <text x="410" y="374" text-anchor="middle" font-size="9" fill="#777">ERC-7579 Nexus · ERC-4337 · Paymaster</text>

  <rect x="540" y="332" width="210" height="60" rx="8" fill="#161616" stroke="#F4B526" stroke-width="1"/>
  <text x="645" y="356" text-anchor="middle" font-size="14" fill="#fff" font-weight="600">RAILGUN</text>
  <text x="645" y="374" text-anchor="middle" font-size="9" fill="#777">Shield · Transact · Unshield · zk-SNARKs</text>

  <!-- CHAIN FOOTER -->
  <rect x="80" y="428" width="640" height="20" rx="4" fill="#F4B526" opacity="0.06"/>
  <text x="400" y="442" text-anchor="middle" font-size="10" fill="#F4B526" font-weight="600" letter-spacing="1.5" opacity="0.7">BNB CHAIN   ·   BASE   ·   USDT   ·   USDC   ·   USD1   ·   GASLESS FOR BUYERS</text>
</svg>
