<svg xmlns="http://www.w3.org/2000/svg" viewBox="0 0 700 440" fill="none">
  <defs>
    <style>
      text { font-family: 'Helvetica Neue', Arial, sans-serif; }
      .box-label { font-size: 13px; fill: #fff; font-weight: 600; }
      .box-sub { font-size: 10px; fill: #999; }
      .conn { stroke: #F4B526; stroke-width: 1.5; fill: none; marker-end: url(#arrowGold); }
    </style>
    <marker id="arrowGold" markerWidth="8" markerHeight="6" refX="8" refY="3" orient="auto">
      <path d="M0,0 L8,3 L0,6" fill="#F4B526"/>
    </marker>
  </defs>

  <rect width="700" height="440" rx="12" fill="#0D0D0D"/>

  <!-- Your Client -->
  <rect x="270" y="20" width="160" height="50" rx="8" fill="#1a1a1a" stroke="#F4B526" stroke-width="1.5"/>
  <text x="350" y="43" text-anchor="middle" class="box-label">Your Client</text>
  <text x="350" y="58" text-anchor="middle" class="box-sub">Agent / Browser / SDK</text>

  <!-- Connectors from client -->
  <line x1="310" y1="70" x2="200" y2="130" class="conn"/>
  <line x1="390" y1="70" x2="500" y2="130" class="conn"/>

  <!-- Facilitator -->
  <rect x="100" y="130" width="200" height="65" rx="8" fill="#1a1a1a" stroke="#F4B526" stroke-width="1.5"/>
  <text x="200" y="157" text-anchor="middle" class="box-label">Facilitator</text>
  <text x="200" y="173" text-anchor="middle" class="box-sub">Fastify · Port 3402</text>
  <text x="200" y="186" text-anchor="middle" class="box-sub">Payment verification &amp; settlement</text>

  <!-- Backend -->
  <rect x="400" y="130" width="200" height="65" rx="8" fill="#1a1a1a" stroke="#F4B526" stroke-width="1.5"/>
  <text x="500" y="157" text-anchor="middle" class="box-label">Backend</text>
  <text x="500" y="173" text-anchor="middle" class="box-sub">Express · Port 3000</text>
  <text x="500" y="186" text-anchor="middle" class="box-sub">Analytics, privacy pool</text>

  <!-- Connector lines down -->
  <line x1="200" y1="195" x2="200" y2="250" class="conn"/>
  <line x1="500" y1="195" x2="500" y2="250" class="conn"/>

  <!-- MongoDB -->
  <rect x="110" y="250" width="180" height="55" rx="8" fill="#111" stroke="#555" stroke-width="1"/>
  <text x="200" y="275" text-anchor="middle" class="box-label" fill="#999">MongoDB</text>
  <text x="200" y="292" text-anchor="middle" class="box-sub">Wallet deployments, tx state</text>

  <!-- PostgreSQL -->
  <rect x="410" y="250" width="180" height="55" rx="8" fill="#111" stroke="#555" stroke-width="1"/>
  <text x="500" y="275" text-anchor="middle" class="box-label" fill="#999">PostgreSQL</text>
  <text x="500" y="292" text-anchor="middle" class="box-sub">Prisma ORM, privacy index</text>

  <!-- Bundler -->
  <line x1="200" y1="305" x2="200" y2="350" class="conn"/>
  <rect x="110" y="350" width="180" height="55" rx="8" fill="#111" stroke="#555" stroke-width="1"/>
  <text x="200" y="375" text-anchor="middle" class="box-label" fill="#999">ERC-4337 Bundler</text>
  <text x="200" y="392" text-anchor="middle" class="box-sub">UserOp submission</text>

  <!-- BNB Chain -->
  <line x1="200" y1="405" x2="350" y2="420" stroke="#F4B526" stroke-width="1" stroke-dasharray="4 3"/>
  <line x1="500" y1="305" x2="350" y2="420" stroke="#F4B526" stroke-width="1" stroke-dasharray="4 3"/>
  <circle cx="350" cy="425" r="4" fill="#F4B526"/>
  <text x="350" y="440" text-anchor="middle" class="box-sub" fill="#F4B526">BNB Chain</text>
</svg>