<svg width="1080" height="1080" viewBox="0 0 1080 1080" fill="none" xmlns="http://www.w3.org/2000/svg">
<rect width="1080" height="1080" fill="#0B0B1F"/>
<path d="M55.1042 848.911C54.4306 846.701 57.0443 842.525 62.2986 836.947C68.011 830.938 76.2563 823.717 83.4507 817.843C159.814 756.973 234.856 692.977 312.513 634.424C318.602 629.305 322.779 624.374 324.315 619.254C329.596 601.47 299.687 579.078 287.049 564.77C273.253 551.028 259.269 537.582 244.799 524.594C233.805 512.954 187.406 481.805 203.438 466.392C210.255 460.841 224.132 460.141 234.452 460.006C283.789 461.138 333.234 461.731 382.786 462.943C404.181 463.024 427.057 464.721 447.94 466.769C467.502 468.413 486.067 469.626 504.471 461.299C529.072 450.063 552.595 430.177 573.37 412.151C620.093 372.514 663.798 334.467 709.632 294.911C720.222 287.581 793.432 213.724 795.776 233.286C797.366 240.103 788.528 262.576 784.406 273.947C778.451 291.219 771.068 312.641 763.119 330.937C753.365 354.541 744.149 378.361 733.263 401.265C726.311 418.698 707.638 443.327 721.731 455.371C737.09 466.257 763.307 464.533 782.358 464.614C828.65 465.287 868.125 464.236 913.824 461.084C940.958 460.087 968.28 459.44 995.387 459.386C1005.87 459.009 1035.89 462.242 1020.88 467.982C1009.1 472.697 997.462 476.146 984.798 482.047C972.08 487.679 956.936 497.11 942.548 503.038C865.322 533.648 786.911 561.186 710.144 591.931C655.041 613.03 640.06 644.529 624.162 698.582C614.408 730.809 603.764 763.278 592.851 795.047C576.603 850.097 557.499 860.956 521.662 812.831C514.01 802.618 504.067 792.137 498.624 782.894C493.477 773.571 489.947 762.847 482.888 756.245C474.265 746.356 460.2 735.335 446.027 729.003C428.701 720.893 408.761 711.004 389.549 715.261C371.846 719.734 358.104 729.192 339.135 738.165C283.412 761.392 225.398 785.077 170.053 808.088C144.374 818.813 118.776 830.615 92.666 841.178C82.1573 844.896 59.5772 854.92 55.1312 849.046V848.938L55.1042 848.911Z" fill="white"/>
</svg>
