<svg width="200" height="200" viewBox="0 0 200 200" fill="none" xmlns="http://www.w3.org/2000/svg">
<rect width="200" height="200" rx="35" fill="#F4B526"/>
<path d="M165 107.639C165 148.382 136.562 168.753 102.763 180.569C100.993 181.17 99.07 181.142 97.3188 180.487C63.4375 168.753 35 148.382 35 107.639V50.5982C35 48.4371 35.856 46.3644 37.3798 44.8363C38.9035 43.3081 40.9701 42.4496 43.125 42.4496C59.375 42.4496 79.6875 32.6712 93.825 20.2853C95.5463 18.8104 97.736 18 100 18C102.264 18 104.454 18.8104 106.175 20.2853C120.394 32.7527 140.625 42.4496 156.875 42.4496C159.03 42.4496 161.097 43.3081 162.62 44.8363C164.144 46.3644 165 48.4371 165 50.5982V107.639Z" fill="white"/>
</svg>
