<svg width="1080" height="1080" viewBox="0 0 1080 1080" fill="none" xmlns="http://www.w3.org/2000/svg">
<rect width="1080" height="1080" fill="#0B0B1F"/>
<path d="M105.093 817.106C104.489 815.124 106.834 811.378 111.546 806.375C116.67 800.986 124.065 794.509 130.518 789.24C199.008 734.646 266.314 677.248 335.965 624.731C341.427 620.139 345.173 615.717 346.55 611.125C351.287 595.174 324.461 575.091 313.127 562.258C300.753 549.932 288.21 537.873 275.232 526.224C265.372 515.783 223.756 487.846 238.135 474.022C244.25 469.043 256.696 468.415 265.952 468.294C310.202 469.309 354.55 469.841 398.994 470.928C418.183 471.001 438.701 472.523 457.43 474.36C474.976 475.834 491.627 476.922 508.134 469.454C530.199 459.376 551.297 441.54 569.93 425.372C611.836 389.822 651.036 355.697 692.144 320.219C701.642 313.645 767.305 247.402 769.408 264.947C770.834 271.062 762.907 291.218 759.209 301.416C753.868 316.908 747.246 336.121 740.117 352.531C731.368 373.702 723.103 395.066 713.339 415.609C707.104 431.245 690.356 453.334 702.996 464.137C716.771 473.901 740.286 472.354 757.372 472.427C798.892 473.031 834.297 472.088 875.285 469.261C899.622 468.367 924.128 467.787 948.44 467.738C957.841 467.4 984.764 470.3 971.302 475.448C960.741 479.677 950.301 482.77 938.942 488.063C927.535 493.114 913.953 501.573 901.048 506.89C831.784 534.344 761.457 559.044 692.604 586.619C643.181 605.542 629.744 633.794 615.485 682.274C606.737 711.179 597.191 740.301 587.403 768.795C572.83 818.169 555.695 827.909 523.552 784.745C516.689 775.586 507.771 766.184 502.889 757.895C498.273 749.533 495.107 739.914 488.776 733.993C481.042 725.124 468.427 715.239 455.714 709.56C440.175 702.285 422.291 693.416 405.06 697.234C389.182 701.246 376.856 709.729 359.842 717.777C309.864 738.609 257.832 759.853 208.192 780.492C185.16 790.11 162.201 800.696 138.783 810.17C129.358 813.505 109.105 822.495 105.118 817.227V817.13L105.093 817.106Z" fill="white"/>
</svg>
