<svg width="551" height="195" viewBox="0 0 551 195" fill="none" xmlns="http://www.w3.org/2000/svg">
<path fill-rule="evenodd" clip-rule="evenodd" d="M94.7923 83.3853L89.5194 68.0355H89.2008L81.9024 88.5966C80.3496 88.6571 78.808 88.5412 77.2312 88.409C73.6428 88.057 69.6935 87.7652 65.9497 87.7513C63.5586 87.6936 61.1673 87.6441 58.7766 87.5984L76.776 40H102.422L113.613 69.9251C109.472 72.9339 105.306 75.9493 101.021 79.0203C99.0412 80.4669 96.9432 81.9832 94.7923 83.3853ZM127.436 106.891C124.607 107.887 121.782 108.895 118.965 109.924C108.611 113.55 104.935 118.965 100.345 128.256L100.269 128.407H110.387L118.989 153.735H144.953L127.436 106.891ZM66.3759 132.609C64.0537 131.494 61.4873 130.542 58.7034 131.124C56.4745 131.651 54.4936 132.581 52.3004 133.612C51.2961 134.083 50.2473 134.576 49.1098 135.061C45.92 136.27 42.692 137.486 39.4511 138.704L33.7671 153.735H58.9353L66.3759 132.609ZM47.4612 117.522L47.9142 117.228C49.1516 116.348 50.0478 115.5 50.4878 114.62C51.0875 113.414 50.7507 112.083 50.0167 110.764L47.4612 117.522ZM10.0019 144.302C9.96489 143.983 10.466 143.381 11.3943 142.577C12.402 141.71 13.8158 140.669 15.0375 139.822C19.6496 136.689 24.2481 133.499 28.8485 130.308L28.8486 130.308L28.8486 130.308C37.1408 124.556 45.4389 118.801 53.8327 113.369C54.8709 112.631 55.6227 111.92 55.9919 111.181C56.9762 109.201 54.9533 106.823 53.3107 104.893C52.8266 104.324 52.3756 103.794 52.0443 103.324C50.4026 101.342 48.7249 99.403 46.9632 97.5299C46.6792 97.16 46.1691 96.6534 45.5763 96.0647L45.5762 96.0646C43.4787 93.9815 40.3448 90.8691 42.5181 89.1361C43.6752 88.3355 45.7336 88.2345 47.2536 88.2151C50.6221 88.2913 53.9973 88.3505 57.376 88.4098L57.3764 88.4098C61.2362 88.4776 65.1004 88.5454 68.9643 88.6387C72.1053 88.6503 75.4187 88.8951 78.4293 89.1905C81.2573 89.4275 83.9509 89.6024 86.8881 88.4016C90.8174 86.7811 94.8309 83.9132 98.3884 81.3135C104.406 77.0007 110.146 72.8183 115.969 68.5746C117.865 67.1936 119.769 65.806 121.694 64.4054C122.129 64.1447 123.236 63.3003 124.656 62.2184L124.656 62.2182C128.99 58.9135 136.232 53.3927 136.078 55.5181C136.116 56.3857 134.618 59.0116 133.63 60.7439C133.499 60.9745 133.376 61.1894 133.268 61.3821L133.261 61.3935L133.261 61.3939C131.903 63.8828 130.221 66.9666 128.543 69.601C128.051 70.3999 127.563 71.2006 127.076 72.0008C125.487 74.6103 123.9 77.2156 122.185 79.7435C121.831 80.3326 121.372 80.9786 120.898 81.6448C119.349 83.8224 117.647 86.2166 118.974 87.5467C120.685 88.9238 123.897 88.9016 126.547 88.8832C126.918 88.8807 127.278 88.8782 127.622 88.8796C134.404 88.9767 140.233 88.8252 147.036 88.3705C151.05 88.2267 155.082 88.1335 159.066 88.1257C160.617 88.0713 164.936 88.5376 162.57 89.3653C161.883 89.6164 161.203 89.8425 160.517 90.0707L160.517 90.0708C159.344 90.4608 158.153 90.857 156.875 91.3938C155.969 91.7572 154.97 92.2302 153.938 92.7186C152.664 93.3219 151.34 93.9486 150.08 94.4211C144.232 96.5362 138.365 98.5496 132.504 100.561L132.503 100.561C126.131 102.748 119.767 104.932 113.443 107.241C104.756 110.284 101.672 114.827 97.8211 122.622C95.4847 127.27 93.0107 131.952 90.5169 136.534C86.5865 144.473 83.4753 146.039 79.5593 139.099C79.2468 138.549 78.8885 137.995 78.5341 137.446L78.534 137.446C77.938 136.523 77.3527 135.617 77.0137 134.781C76.8685 134.387 76.7472 133.975 76.6266 133.565L76.6265 133.565C76.3363 132.58 76.0509 131.611 75.4489 130.938C74.4593 129.512 72.7018 127.922 70.797 127.009L70.5283 126.873C68.2746 125.733 65.7136 124.437 62.8847 125.027C61.0147 125.47 59.3528 126.251 57.5128 127.115L57.5127 127.115C56.6701 127.511 55.7901 127.924 54.8358 128.331C50.1256 130.116 45.3163 131.92 40.5228 133.718C36.322 135.294 32.1334 136.865 28.0344 138.415C26.2743 139.083 24.5107 139.78 22.742 140.48L22.7415 140.48C20.4171 141.399 18.0837 142.322 15.7372 143.187C15.4733 143.273 15.1593 143.382 14.8161 143.501L14.8159 143.501C13.0161 144.127 10.4124 145.033 10.0021 144.322L10.0051 144.306L10.0019 144.302ZM206.273 91.9138H233.671C239.406 91.9138 243.707 90.6395 246.574 88.0908C249.441 85.5421 250.875 81.4005 250.875 75.666C250.875 70.1439 249.441 66.1616 246.574 63.7191C243.707 61.1704 239.406 59.8961 233.671 59.8961H206.273V91.9138ZM181.264 40.4624H242.592C247.689 40.4624 252.255 41.312 256.291 43.0111C260.432 44.604 263.937 46.8341 266.804 49.7014C269.778 52.5686 272.008 55.9138 273.494 59.7368C275.087 63.4536 275.884 67.489 275.884 71.843C275.884 78.5333 274.45 84.3209 271.583 89.2059C268.822 94.0908 264.255 97.8076 257.884 100.356V100.675C260.963 101.524 263.512 102.852 265.53 104.657C267.548 106.356 269.194 108.427 270.468 110.87C271.742 113.206 272.645 115.808 273.176 118.675C273.813 121.542 274.238 124.409 274.45 127.277C274.556 129.082 274.663 131.206 274.769 133.648C274.875 136.091 275.034 138.586 275.247 141.135C275.565 143.684 275.99 146.126 276.521 148.463C277.158 150.693 278.061 152.604 279.229 154.197H254.22C252.84 150.587 251.99 146.286 251.671 141.294C251.353 136.303 250.875 131.525 250.238 126.958C249.388 121.011 247.583 116.657 244.822 113.896C242.061 111.135 237.547 109.755 231.282 109.755H206.273V154.197H181.264V40.4624ZM401.992 40.4624H316.93V154.197H403.267V133.171H341.939V105.294H397.054V85.8607H341.939V61.489H401.992V40.4624ZM499.072 110.232H469.602L484.417 68.4979H484.735L499.072 110.232ZM497.638 40.4624H471.992L428.983 154.197H454.151L463.071 128.87H505.603L514.204 154.197H540.169L497.638 40.4624Z" fill="#0B0B1F"/>
</svg>
